<svg xmlns="http://www.w3.org/2000/svg" width="1440" height="900"><path d="M747,473L770,411L670,428Z" fill="#7998b3" stroke="#7998b3" stroke-width="1.51"/><path d="M670,428L678,485L747,473Z" fill="#7998b4" stroke="#7998b4" stroke-width="1.51"/><path d="M770,411L695,332L670,428Z" fill="#7695b1" stroke="#7695b1" stroke-width="1.51"/><path d="M770,411L790,311L695,332Z" fill="#7595b1" stroke="#7595b1" stroke-width="1.51"/><path d="M865,486L840,398L770,411Z" fill="#7b9bb6" stroke="#7b9bb6" stroke-width="1.51"/><path d="M670,428L582,472L678,485Z" fill="#7796b2" stroke="#7796b2" stroke-width="1.51"/><path d="M695,332L594,404L670,428Z" fill="#7493b0" stroke="#7493b0" stroke-width="1.51"/><path d="M840,398L790,311L770,411Z" fill="#7797b3" stroke="#7797b3" stroke-width="1.51"/><path d="M678,485L751,570L747,473Z" fill="#7b9cb6" stroke="#7b9cb6" stroke-width="1.51"/><path d="M747,473L865,486L770,411Z" fill="#7b9bb6" stroke="#7b9bb6" stroke-width="1.51"/><path d="M649,573L751,570L678,485Z" fill="#7c9cb6" stroke="#7c9cb6" stroke-width="1.51"/><path d="M594,404L582,472L670,428Z" fill="#7494b0" stroke="#7494b0" stroke-width="1.51"/><path d="M841,578L865,486L747,473Z" fill="#7ea0b9" stroke="#7ea0b9" stroke-width="1.51"/><path d="M840,398L827,313L790,311Z" fill="#7797b2" stroke="#7797b2" stroke-width="1.51"/><path d="M939,325L827,313L840,398Z" fill="#7998b3" stroke="#7998b3" stroke-width="1.51"/><path d="M582,472L649,573L678,485Z" fill="#7999b4" stroke="#7999b4" stroke-width="1.51"/><path d="M695,332L594,320L594,404Z" fill="#7190ad" stroke="#7190ad" stroke-width="1.51"/><path d="M594,404L509,417L582,472Z" fill="#7392ae" stroke="#7392ae" stroke-width="1.51"/><path d="M617,254L594,320L695,332Z" fill="#708eab" stroke="#708eab" stroke-width="1.51"/><path d="M751,570L841,578L747,473Z" fill="#7e9fb9" stroke="#7e9fb9" stroke-width="1.51"/><path d="M779,642L841,578L751,570Z" fill="#81a3bc" stroke="#81a3bc" stroke-width="1.51"/><path d="M790,311L783,237L695,332Z" fill="#7392ae" stroke="#7392ae" stroke-width="1.51"/><path d="M827,313L783,237L790,311Z" fill="#7493af" stroke="#7493af" stroke-width="1.51"/><path d="M783,237L669,232L695,332Z" fill="#708fac" stroke="#708fac" stroke-width="1.51"/><path d="M669,232L617,254L695,332Z" fill="#6f8eab" stroke="#6f8eab" stroke-width="1.51"/><path d="M517,343L509,417L594,404Z" fill="#708fac" stroke="#708fac" stroke-width="1.51"/><path d="M582,472L578,594L649,573Z" fill="#7999b4" stroke="#7999b4" stroke-width="1.51"/><path d="M517,343L594,404L594,320Z" fill="#708eab" stroke="#708eab" stroke-width="1.51"/><path d="M692,680L779,642L751,570Z" fill="#81a2bc" stroke="#81a2bc" stroke-width="1.51"/><path d="M509,553L578,594L582,472Z" fill="#7797b3" stroke="#7797b3" stroke-width="1.51"/><path d="M692,680L751,570L649,573Z" fill="#7ea0ba" stroke="#7ea0ba" stroke-width="1.51"/><path d="M523,221L517,343L594,320Z" fill="#6d8aa8" stroke="#6d8aa8" stroke-width="1.51"/><path d="M865,486L949,393L840,398Z" fill="#7c9db7" stroke="#7c9db7" stroke-width="1.51"/><path d="M827,313L833,215L783,237Z" fill="#7392ae" stroke="#7392ae" stroke-width="1.51"/><path d="M942,503L949,393L865,486Z" fill="#7fa0ba" stroke="#7fa0ba" stroke-width="1.51"/><path d="M841,578L942,503L865,486Z" fill="#80a2bb" stroke="#80a2bb" stroke-width="1.51"/><path d="M964,587L942,503L841,578Z" fill="#83a5be" stroke="#83a5be" stroke-width="1.51"/><path d="M509,417L491,475L582,472Z" fill="#7392ae" stroke="#7392ae" stroke-width="1.51"/><path d="M441,408L491,475L509,417Z" fill="#718fac" stroke="#718fac" stroke-width="1.51"/><path d="M738,147L683,154L669,232Z" fill="#6c8aa8" stroke="#6c8aa8" stroke-width="1.51"/><path d="M936,251L833,215L827,313Z" fill="#7594b0" stroke="#7594b0" stroke-width="1.51"/><path d="M949,393L939,325L840,398Z" fill="#7b9bb6" stroke="#7b9bb6" stroke-width="1.51"/><path d="M578,594L602,638L649,573Z" fill="#7c9cb7" stroke="#7c9cb7" stroke-width="1.51"/><path d="M505,668L602,638L578,594Z" fill="#7b9cb7" stroke="#7b9cb7" stroke-width="1.51"/><path d="M491,475L509,553L582,472Z" fill="#7594b0" stroke="#7594b0" stroke-width="1.51"/><path d="M602,638L692,680L649,573Z" fill="#7e9fb9" stroke="#7e9fb9" stroke-width="1.51"/><path d="M669,232L617,153L617,254Z" fill="#6c8aa8" stroke="#6c8aa8" stroke-width="1.51"/><path d="M617,254L523,221L594,320Z" fill="#6c8aa8" stroke="#6c8aa8" stroke-width="1.51"/><path d="M738,147L669,232L783,237Z" fill="#6e8caa" stroke="#6e8caa" stroke-width="1.51"/><path d="M1023,302L936,251L939,325Z" fill="#7999b4" stroke="#7999b4" stroke-width="1.51"/><path d="M939,325L936,251L827,313Z" fill="#7797b3" stroke="#7797b3" stroke-width="1.51"/><path d="M833,215L738,147L783,237Z" fill="#708eac" stroke="#708eac" stroke-width="1.51"/><path d="M517,343L441,408L509,417Z" fill="#6f8eab" stroke="#6f8eab" stroke-width="1.51"/><path d="M491,475L423,479L509,553Z" fill="#7393af" stroke="#7393af" stroke-width="1.51"/><path d="M410,317L441,408L517,343Z" fill="#6d8aa8" stroke="#6d8aa8" stroke-width="1.51"/><path d="M873,118L738,147L833,215Z" fill="#6f8dab" stroke="#6f8dab" stroke-width="1.51"/><path d="M617,153L523,221L617,254Z" fill="#6a88a6" stroke="#6a88a6" stroke-width="1.51"/><path d="M861,694L964,587L841,578Z" fill="#85a7c0" stroke="#85a7c0" stroke-width="1.51"/><path d="M942,503L1027,404L949,393Z" fill="#7fa1ba" stroke="#7fa1ba" stroke-width="1.51"/><path d="M861,694L841,578L779,642Z" fill="#84a6be" stroke="#84a6be" stroke-width="1.51"/><path d="M683,154L617,153L669,232Z" fill="#6b89a7" stroke="#6b89a7" stroke-width="1.51"/><path d="M694,52L617,153L683,154Z" fill="#6986a5" stroke="#6986a5" stroke-width="1.51"/><path d="M851,744L861,694L779,642Z" fill="#86a9c1" stroke="#86a9c1" stroke-width="1.51"/><path d="M441,408L423,479L491,475Z" fill="#718fac" stroke="#718fac" stroke-width="1.51"/><path d="M509,553L505,668L578,594Z" fill="#799ab5" stroke="#799ab5" stroke-width="1.51"/><path d="M1047,477L1027,404L942,503Z" fill="#82a3bc" stroke="#82a3bc" stroke-width="1.51"/><path d="M949,393L1023,302L939,325Z" fill="#7b9cb6" stroke="#7b9cb6" stroke-width="1.51"/><path d="M602,638L598,751L692,680Z" fill="#80a1bb" stroke="#80a1bb" stroke-width="1.51"/><path d="M748,773L851,744L779,642Z" fill="#86a9c1" stroke="#86a9c1" stroke-width="1.51"/><path d="M428,592L505,668L509,553Z" fill="#7898b3" stroke="#7898b3" stroke-width="1.51"/><path d="M1027,404L1023,302L949,393Z" fill="#7d9eb8" stroke="#7d9eb8" stroke-width="1.51"/><path d="M936,251L912,162L833,215Z" fill="#7393af" stroke="#7393af" stroke-width="1.51"/><path d="M1005,235L912,162L936,251Z" fill="#7595b1" stroke="#7595b1" stroke-width="1.51"/><path d="M1036,577L1047,477L942,503Z" fill="#84a6bf" stroke="#84a6bf" stroke-width="1.51"/><path d="M1027,404L1130,302L1023,302Z" fill="#7e9fb9" stroke="#7e9fb9" stroke-width="1.51"/><path d="M523,221L410,317L517,343Z" fill="#6b89a7" stroke="#6b89a7" stroke-width="1.51"/><path d="M441,408L344,408L423,479Z" fill="#6e8daa" stroke="#6e8daa" stroke-width="1.51"/><path d="M423,479L428,592L509,553Z" fill="#7494b0" stroke="#7494b0" stroke-width="1.51"/><path d="M352,567L428,592L423,479Z" fill="#7392af" stroke="#7392af" stroke-width="1.51"/><path d="M523,221L425,220L410,317Z" fill="#6885a4" stroke="#6885a4" stroke-width="1.51"/><path d="M617,153L501,168L523,221Z" fill="#6885a4" stroke="#6885a4" stroke-width="1.51"/><path d="M1016,638L1036,577L964,587Z" fill="#88aac2" stroke="#88aac2" stroke-width="1.51"/><path d="M964,587L1036,577L942,503Z" fill="#85a7c0" stroke="#85a7c0" stroke-width="1.51"/><path d="M748,773L779,642L692,680Z" fill="#84a6be" stroke="#84a6be" stroke-width="1.51"/><path d="M1023,302L1005,235L936,251Z" fill="#7999b4" stroke="#7999b4" stroke-width="1.51"/><path d="M863,51L873,118L954,56Z" fill="#6e8caa" stroke="#6e8caa" stroke-width="1.51"/><path d="M912,162L873,118L833,215Z" fill="#7190ad" stroke="#7190ad" stroke-width="1.51"/><path d="M738,147L694,52L683,154Z" fill="#6a88a6" stroke="#6a88a6" stroke-width="1.51"/><path d="M617,153L599,54L501,168Z" fill="#6683a3" stroke="#6683a3" stroke-width="1.51"/><path d="M505,668L598,751L602,638Z" fill="#7e9fb9" stroke="#7e9fb9" stroke-width="1.51"/><path d="M699,778L748,773L692,680Z" fill="#85a7c0" stroke="#85a7c0" stroke-width="1.51"/><path d="M951,694L964,587L861,694Z" fill="#87aac2" stroke="#87aac2" stroke-width="1.51"/><path d="M598,751L699,778L692,680Z" fill="#83a5be" stroke="#83a5be" stroke-width="1.51"/><path d="M942,759L951,694L861,694Z" fill="#89adc4" stroke="#89adc4" stroke-width="1.51"/><path d="M951,694L1016,638L964,587Z" fill="#89abc3" stroke="#89abc3" stroke-width="1.51"/><path d="M501,168L425,220L523,221Z" fill="#6784a3" stroke="#6784a3" stroke-width="1.51"/><path d="M873,118L765,64L738,147Z" fill="#6c8aa8" stroke="#6c8aa8" stroke-width="1.51"/><path d="M505,668L526,750L598,751Z" fill="#7fa0ba" stroke="#7fa0ba" stroke-width="1.51"/><path d="M601,810L704,816L699,778Z" fill="#86a9c1" stroke="#86a9c1" stroke-width="1.51"/><path d="M391,778L526,750L505,668Z" fill="#7d9eb8" stroke="#7d9eb8" stroke-width="1.51"/><path d="M765,64L694,52L738,147Z" fill="#6987a6" stroke="#6987a6" stroke-width="1.51"/><path d="M304,312L344,408L410,317Z" fill="#6986a5" stroke="#6986a5" stroke-width="1.51"/><path d="M410,317L344,408L441,408Z" fill="#6c89a8" stroke="#6c89a8" stroke-width="1.51"/><path d="M344,408L349,503L423,479Z" fill="#6f8daa" stroke="#6f8daa" stroke-width="1.51"/><path d="M428,592L397,652L505,668Z" fill="#7898b3" stroke="#7898b3" stroke-width="1.51"/><path d="M748,773L768,835L851,744Z" fill="#89acc3" stroke="#89acc3" stroke-width="1.51"/><path d="M699,778L704,816L748,773Z" fill="#87aac2" stroke="#87aac2" stroke-width="1.51"/><path d="M601,810L699,778L598,751Z" fill="#84a7bf" stroke="#84a7bf" stroke-width="1.51"/><path d="M1036,577L1088,558L1047,477Z" fill="#86a9c1" stroke="#86a9c1" stroke-width="1.51"/><path d="M1047,477L1133,415L1027,404Z" fill="#82a4bd" stroke="#82a4bd" stroke-width="1.51"/><path d="M1089,654L1088,558L1036,577Z" fill="#89adc4" stroke="#89adc4" stroke-width="1.51"/><path d="M694,52L599,54L617,153Z" fill="#6784a3" stroke="#6784a3" stroke-width="1.51"/><path d="M402,121L358,243L425,220Z" fill="#6480a0" stroke="#6480a0" stroke-width="1.51"/><path d="M352,567L397,652L428,592Z" fill="#7595b0" stroke="#7595b0" stroke-width="1.51"/><path d="M331,644L352,567L251,579Z" fill="#7392ae" stroke="#7392ae" stroke-width="1.51"/><path d="M349,503L352,567L423,479Z" fill="#7190ac" stroke="#7190ac" stroke-width="1.51"/><path d="M851,744L942,759L861,694Z" fill="#89adc4" stroke="#89adc4" stroke-width="1.51"/><path d="M951,694L1027,731L1016,638Z" fill="#8bafc5" stroke="#8bafc5" stroke-width="1.51"/><path d="M1016,638L1089,654L1036,577Z" fill="#89adc4" stroke="#89adc4" stroke-width="1.51"/><path d="M853,832L942,759L851,744Z" fill="#8bafc6" stroke="#8bafc6" stroke-width="1.51"/><path d="M526,750L601,810L598,751Z" fill="#82a4bd" stroke="#82a4bd" stroke-width="1.51"/><path d="M476,824L601,810L526,750Z" fill="#82a4bc" stroke="#82a4bc" stroke-width="1.51"/><path d="M873,118L863,51L765,64Z" fill="#6c8aa8" stroke="#6c8aa8" stroke-width="1.51"/><path d="M653,-21L613,-8L694,52Z" fill="#6480a0" stroke="#6480a0" stroke-width="1.51"/><path d="M954,56L873,118L912,162Z" fill="#708eac" stroke="#708eac" stroke-width="1.51"/><path d="M425,220L358,243L410,317Z" fill="#6784a3" stroke="#6784a3" stroke-width="1.51"/><path d="M402,121L425,220L501,168Z" fill="#6481a0" stroke="#6481a0" stroke-width="1.51"/><path d="M704,816L768,835L748,773Z" fill="#88acc3" stroke="#88acc3" stroke-width="1.51"/><path d="M664,923L768,835L704,816Z" fill="#8aadc4" stroke="#8aadc4" stroke-width="1.51"/><path d="M1131,505L1133,415L1047,477Z" fill="#85a7bf" stroke="#85a7bf" stroke-width="1.51"/><path d="M1023,302L1132,223L1005,235Z" fill="#7a9bb5" stroke="#7a9bb5" stroke-width="1.51"/><path d="M1088,558L1131,505L1047,477Z" fill="#86a9c1" stroke="#86a9c1" stroke-width="1.51"/><path d="M1184,565L1131,505L1088,558Z" fill="#89acc3" stroke="#89acc3" stroke-width="1.51"/><path d="M768,835L853,832L851,744Z" fill="#8baec5" stroke="#8baec5" stroke-width="1.51"/><path d="M1133,415L1130,302L1027,404Z" fill="#80a2bc" stroke="#80a2bc" stroke-width="1.51"/><path d="M1005,235L1039,136L912,162Z" fill="#7595b0" stroke="#7595b0" stroke-width="1.51"/><path d="M1038,843L1027,731L942,759Z" fill="#8fb3c9" stroke="#8fb3c9" stroke-width="1.51"/><path d="M942,759L1027,731L951,694Z" fill="#8cb0c6" stroke="#8cb0c6" stroke-width="1.51"/><path d="M1027,731L1089,654L1016,638Z" fill="#8cb0c6" stroke="#8cb0c6" stroke-width="1.51"/><path d="M1132,223L1039,136L1005,235Z" fill="#7898b3" stroke="#7898b3" stroke-width="1.51"/><path d="M344,408L263,418L349,503Z" fill="#6c8aa8" stroke="#6c8aa8" stroke-width="1.51"/><path d="M358,243L304,312L410,317Z" fill="#6784a3" stroke="#6784a3" stroke-width="1.51"/><path d="M1039,136L954,56L912,162Z" fill="#7291ad" stroke="#7291ad" stroke-width="1.51"/><path d="M599,54L495,49L501,168Z" fill="#6480a0" stroke="#6480a0" stroke-width="1.51"/><path d="M216,221L228,319L304,312Z" fill="#6480a0" stroke="#6480a0" stroke-width="1.51"/><path d="M519,-35L495,49L599,54Z" fill="#617d9e" stroke="#617d9e" stroke-width="1.51"/><path d="M613,-8L599,54L694,52Z" fill="#6581a1" stroke="#6581a1" stroke-width="1.51"/><path d="M439,74L402,121L501,168Z" fill="#637f9f" stroke="#637f9f" stroke-width="1.51"/><path d="M391,778L476,824L526,750Z" fill="#7fa1ba" stroke="#7fa1ba" stroke-width="1.51"/><path d="M352,567L331,644L397,652Z" fill="#7595b1" stroke="#7595b1" stroke-width="1.51"/><path d="M251,579L352,567L349,503Z" fill="#7190ac" stroke="#7190ac" stroke-width="1.51"/><path d="M653,-21L694,52L739,-46Z" fill="#6481a1" stroke="#6481a1" stroke-width="1.51"/><path d="M694,52L765,64L739,-46Z" fill="#6784a3" stroke="#6784a3" stroke-width="1.51"/><path d="M495,49L439,74L501,168Z" fill="#627f9f" stroke="#627f9f" stroke-width="1.51"/><path d="M444,1L439,74L495,49Z" fill="#5f7b9c" stroke="#5f7b9c" stroke-width="1.51"/><path d="M862,-7L765,64L863,51Z" fill="#6a88a6" stroke="#6a88a6" stroke-width="1.51"/><path d="M908,-13L862,-7L863,51Z" fill="#6b89a7" stroke="#6b89a7" stroke-width="1.51"/><path d="M304,312L263,418L344,408Z" fill="#6987a5" stroke="#6987a5" stroke-width="1.51"/><path d="M1130,302L1132,223L1023,302Z" fill="#7c9db7" stroke="#7c9db7" stroke-width="1.51"/><path d="M1039,136L1027,73L954,56Z" fill="#7290ad" stroke="#7290ad" stroke-width="1.51"/><path d="M1173,299L1132,223L1130,302Z" fill="#7e9fb9" stroke="#7e9fb9" stroke-width="1.51"/><path d="M853,832L950,834L942,759Z" fill="#8db2c8" stroke="#8db2c8" stroke-width="1.51"/><path d="M1027,731L1088,731L1089,654Z" fill="#8eb2c8" stroke="#8eb2c8" stroke-width="1.51"/><path d="M923,916L950,834L853,832Z" fill="#90b4ca" stroke="#90b4ca" stroke-width="1.51"/><path d="M391,778L505,668L397,652Z" fill="#7b9bb6" stroke="#7b9bb6" stroke-width="1.51"/><path d="M601,810L664,923L704,816Z" fill="#88abc2" stroke="#88abc2" stroke-width="1.51"/><path d="M1103,66L1027,73L1039,136Z" fill="#7492af" stroke="#7492af" stroke-width="1.51"/><path d="M954,56L908,-13L863,51Z" fill="#6d8ba9" stroke="#6d8ba9" stroke-width="1.51"/><path d="M1212,417L1173,299L1133,415Z" fill="#83a5be" stroke="#83a5be" stroke-width="1.51"/><path d="M1133,415L1173,299L1130,302Z" fill="#80a2bb" stroke="#80a2bb" stroke-width="1.51"/><path d="M862,-7L739,-46L765,64Z" fill="#6885a4" stroke="#6885a4" stroke-width="1.51"/><path d="M1038,843L1088,731L1027,731Z" fill="#90b5ca" stroke="#90b5ca" stroke-width="1.51"/><path d="M1172,649L1184,565L1088,558Z" fill="#8bafc5" stroke="#8bafc5" stroke-width="1.51"/><path d="M1211,476L1212,417L1133,415Z" fill="#86a8c1" stroke="#86a8c1" stroke-width="1.51"/><path d="M871,-131L752,-139L739,-46Z" fill="#637fa0" stroke="#637fa0" stroke-width="1.51"/><path d="M1020,-37L908,-13L954,56Z" fill="#6d8ba9" stroke="#6d8ba9" stroke-width="1.51"/><path d="M337,734L391,778L397,652Z" fill="#7a9bb5" stroke="#7a9bb5" stroke-width="1.51"/><path d="M1172,649L1088,558L1089,654Z" fill="#8bafc6" stroke="#8bafc6" stroke-width="1.51"/><path d="M1166,141L1116,144L1132,223Z" fill="#7999b4" stroke="#7999b4" stroke-width="1.51"/><path d="M1132,223L1116,144L1039,136Z" fill="#7898b3" stroke="#7898b3" stroke-width="1.51"/><path d="M391,778L446,829L476,824Z" fill="#80a1bb" stroke="#80a1bb" stroke-width="1.51"/><path d="M476,824L568,897L601,810Z" fill="#84a7bf" stroke="#84a7bf" stroke-width="1.51"/><path d="M1211,476L1133,415L1131,505Z" fill="#86a9c1" stroke="#86a9c1" stroke-width="1.51"/><path d="M331,644L337,734L397,652Z" fill="#7797b2" stroke="#7797b2" stroke-width="1.51"/><path d="M390,903L481,951L446,829Z" fill="#83a5be" stroke="#83a5be" stroke-width="1.51"/><path d="M238,686L337,734L331,644Z" fill="#7696b1" stroke="#7696b1" stroke-width="1.51"/><path d="M1184,565L1211,476L1131,505Z" fill="#89acc3" stroke="#89acc3" stroke-width="1.51"/><path d="M481,951L568,897L476,824Z" fill="#85a7c0" stroke="#85a7c0" stroke-width="1.51"/><path d="M768,835L833,937L853,832Z" fill="#8eb2c8" stroke="#8eb2c8" stroke-width="1.51"/><path d="M221,508L251,579L349,503Z" fill="#6e8daa" stroke="#6e8daa" stroke-width="1.51"/><path d="M568,897L664,923L601,810Z" fill="#87abc2" stroke="#87abc2" stroke-width="1.51"/><path d="M1308,480L1212,417L1211,476Z" fill="#88acc3" stroke="#88acc3" stroke-width="1.51"/><path d="M1088,731L1172,649L1089,654Z" fill="#8eb2c9" stroke="#8eb2c9" stroke-width="1.51"/><path d="M332,36L322,124L402,121Z" fill="#5f7a9b" stroke="#5f7a9b" stroke-width="1.51"/><path d="M402,121L322,124L358,243Z" fill="#617e9e" stroke="#617e9e" stroke-width="1.51"/><path d="M304,312L228,319L263,418Z" fill="#6784a3" stroke="#6784a3" stroke-width="1.51"/><path d="M332,36L402,121L439,74Z" fill="#5f7b9b" stroke="#5f7b9b" stroke-width="1.51"/><path d="M263,418L221,508L349,503Z" fill="#6d8aa8" stroke="#6d8aa8" stroke-width="1.51"/><path d="M216,221L304,312L358,243Z" fill="#6480a0" stroke="#6480a0" stroke-width="1.51"/><path d="M613,-8L519,-35L599,54Z" fill="#617e9e" stroke="#617e9e" stroke-width="1.51"/><path d="M610,-137L519,-35L613,-8Z" fill="#5f7b9b" stroke="#5f7b9b" stroke-width="1.51"/><path d="M663,-93L613,-8L653,-21Z" fill="#627e9e" stroke="#627e9e" stroke-width="1.51"/><path d="M185,483L221,508L263,418Z" fill="#6a88a7" stroke="#6a88a7" stroke-width="1.51"/><path d="M519,-35L444,1L495,49Z" fill="#5f7a9b" stroke="#5f7a9b" stroke-width="1.51"/><path d="M950,834L1038,843L942,759Z" fill="#90b4ca" stroke="#90b4ca" stroke-width="1.51"/><path d="M740,952L833,937L768,835Z" fill="#8eb2c8" stroke="#8eb2c8" stroke-width="1.51"/><path d="M1088,731L1181,764L1172,649Z" fill="#91b5cb" stroke="#91b5cb" stroke-width="1.51"/><path d="M1027,928L1038,843L950,834Z" fill="#93b8cd" stroke="#93b8cd" stroke-width="1.51"/><path d="M664,923L740,952L768,835Z" fill="#8cb0c6" stroke="#8cb0c6" stroke-width="1.51"/><path d="M664,989L740,952L664,923Z" fill="#8db2c8" stroke="#8db2c8" stroke-width="1.51"/><path d="M739,-46L663,-93L653,-21Z" fill="#627e9f" stroke="#627e9f" stroke-width="1.51"/><path d="M752,-139L663,-93L739,-46Z" fill="#627e9e" stroke="#627e9e" stroke-width="1.51"/><path d="M1116,144L1103,66L1039,136Z" fill="#7695b1" stroke="#7695b1" stroke-width="1.51"/><path d="M1027,73L1020,-37L954,56Z" fill="#6f8dab" stroke="#6f8dab" stroke-width="1.51"/><path d="M1168,75L1103,66L1116,144Z" fill="#7695b1" stroke="#7695b1" stroke-width="1.51"/><path d="M1166,141L1132,223L1217,229Z" fill="#7b9cb7" stroke="#7b9cb7" stroke-width="1.51"/><path d="M833,937L923,916L853,832Z" fill="#90b5ca" stroke="#90b5ca" stroke-width="1.51"/><path d="M1217,229L1132,223L1173,299Z" fill="#7e9fb9" stroke="#7e9fb9" stroke-width="1.51"/><path d="M1298,313L1217,229L1173,299Z" fill="#80a3bb" stroke="#80a3bb" stroke-width="1.51"/><path d="M1298,313L1173,299L1212,417Z" fill="#83a5be" stroke="#83a5be" stroke-width="1.51"/><path d="M322,124L261,156L358,243Z" fill="#617c9d" stroke="#617c9d" stroke-width="1.51"/><path d="M233,89L261,156L322,124Z" fill="#5e799b" stroke="#5e799b" stroke-width="1.51"/><path d="M132,555L169,637L251,579Z" fill="#6f8daa" stroke="#6f8daa" stroke-width="1.51"/><path d="M251,579L238,686L331,644Z" fill="#7393af" stroke="#7393af" stroke-width="1.51"/><path d="M140,409L185,483L263,418Z" fill="#6985a5" stroke="#6985a5" stroke-width="1.51"/><path d="M140,409L263,418L228,319Z" fill="#6783a2" stroke="#6783a2" stroke-width="1.51"/><path d="M261,156L216,221L358,243Z" fill="#617d9d" stroke="#617d9d" stroke-width="1.51"/><path d="M169,637L238,686L251,579Z" fill="#7191ad" stroke="#7191ad" stroke-width="1.51"/><path d="M390,903L446,829L391,778Z" fill="#80a1bb" stroke="#80a1bb" stroke-width="1.51"/><path d="M444,1L332,36L439,74Z" fill="#5e799a" stroke="#5e799a" stroke-width="1.51"/><path d="M261,156L171,215L216,221Z" fill="#5f7b9c" stroke="#5f7b9c" stroke-width="1.51"/><path d="M355,-36L332,36L444,1Z" fill="#5b7798" stroke="#5b7798" stroke-width="1.51"/><path d="M355,-36L444,1L396,-86Z" fill="#5b7597" stroke="#5b7597" stroke-width="1.51"/><path d="M908,-13L933,-85L862,-7Z" fill="#6987a5" stroke="#6987a5" stroke-width="1.51"/><path d="M1080,-11L1020,-37L1027,73Z" fill="#708eab" stroke="#708eab" stroke-width="1.51"/><path d="M1080,-11L1027,73L1103,66Z" fill="#7291ad" stroke="#7291ad" stroke-width="1.51"/><path d="M1020,-37L933,-85L908,-13Z" fill="#6b88a7" stroke="#6b88a7" stroke-width="1.51"/><path d="M593,1013L664,989L664,923Z" fill="#8db1c7" stroke="#8db1c7" stroke-width="1.51"/><path d="M740,952L783,1015L833,937Z" fill="#91b6cb" stroke="#91b6cb" stroke-width="1.51"/><path d="M918,994L1027,928L923,916Z" fill="#95bbcf" stroke="#95bbcf" stroke-width="1.51"/><path d="M593,1013L664,923L568,897Z" fill="#8aaec5" stroke="#8aaec5" stroke-width="1.51"/><path d="M481,951L476,824L446,829Z" fill="#83a5be" stroke="#83a5be" stroke-width="1.51"/><path d="M1038,843L1128,821L1088,731Z" fill="#93b8cd" stroke="#93b8cd" stroke-width="1.51"/><path d="M1128,925L1128,821L1038,843Z" fill="#95bbd0" stroke="#95bbd0" stroke-width="1.51"/><path d="M1168,75L1080,-11L1103,66Z" fill="#7392af" stroke="#7392af" stroke-width="1.51"/><path d="M1026,-128L871,-131L933,-85Z" fill="#6785a4" stroke="#6785a4" stroke-width="1.51"/><path d="M1168,75L1116,144L1166,141Z" fill="#7797b3" stroke="#7797b3" stroke-width="1.51"/><path d="M871,-131L739,-46L862,-7Z" fill="#6683a2" stroke="#6683a2" stroke-width="1.51"/><path d="M663,-93L610,-137L613,-8Z" fill="#5f7b9c" stroke="#5f7b9c" stroke-width="1.51"/><path d="M1128,821L1181,764L1088,731Z" fill="#93b8cd" stroke="#93b8cd" stroke-width="1.51"/><path d="M1276,599L1211,476L1184,565Z" fill="#8cb0c6" stroke="#8cb0c6" stroke-width="1.51"/><path d="M1265,149L1168,75L1166,141Z" fill="#7999b4" stroke="#7999b4" stroke-width="1.51"/><path d="M1308,480L1292,392L1212,417Z" fill="#88acc3" stroke="#88acc3" stroke-width="1.51"/><path d="M1217,229L1265,149L1166,141Z" fill="#7b9cb7" stroke="#7b9cb7" stroke-width="1.51"/><path d="M1276,599L1184,565L1172,649Z" fill="#8eb2c8" stroke="#8eb2c8" stroke-width="1.51"/><path d="M390,903L391,778L326,864Z" fill="#7fa0ba" stroke="#7fa0ba" stroke-width="1.51"/><path d="M752,-139L610,-137L663,-93Z" fill="#5f7b9b" stroke="#5f7b9b" stroke-width="1.51"/><path d="M933,-85L871,-131L862,-7Z" fill="#6885a4" stroke="#6885a4" stroke-width="1.51"/><path d="M1026,-128L933,-85L1020,-37Z" fill="#6a88a7" stroke="#6a88a7" stroke-width="1.51"/><path d="M326,864L391,778L337,734Z" fill="#7c9db7" stroke="#7c9db7" stroke-width="1.51"/><path d="M1271,647L1276,599L1172,649Z" fill="#90b4ca" stroke="#90b4ca" stroke-width="1.51"/><path d="M142,328L140,409L228,319Z" fill="#6481a0" stroke="#6481a0" stroke-width="1.51"/><path d="M132,555L251,579L221,508Z" fill="#6d8ca9" stroke="#6d8ca9" stroke-width="1.51"/><path d="M923,916L1027,928L950,834Z" fill="#93b8cd" stroke="#93b8cd" stroke-width="1.51"/><path d="M918,994L923,916L833,937Z" fill="#93b9cd" stroke="#93b9cd" stroke-width="1.51"/><path d="M1292,392L1298,313L1212,417Z" fill="#86a8c0" stroke="#86a8c0" stroke-width="1.51"/><path d="M171,215L228,319L216,221Z" fill="#617d9d" stroke="#617d9d" stroke-width="1.51"/><path d="M171,215L142,328L228,319Z" fill="#627d9e" stroke="#627d9e" stroke-width="1.51"/><path d="M236,769L326,864L337,734Z" fill="#7b9bb6" stroke="#7b9bb6" stroke-width="1.51"/><path d="M1292,392L1340,300L1298,313Z" fill="#85a8c0" stroke="#85a8c0" stroke-width="1.51"/><path d="M1276,599L1308,480L1211,476Z" fill="#8bb0c6" stroke="#8bb0c6" stroke-width="1.51"/><path d="M664,989L783,1015L740,952Z" fill="#90b5ca" stroke="#90b5ca" stroke-width="1.51"/><path d="M593,1013L783,1015L664,989Z" fill="#8fb4ca" stroke="#8fb4ca" stroke-width="1.51"/><path d="M135,123L171,215L261,156Z" fill="#5d7899" stroke="#5d7899" stroke-width="1.51"/><path d="M238,686L236,769L337,734Z" fill="#7797b3" stroke="#7797b3" stroke-width="1.51"/><path d="M132,555L221,508L185,483Z" fill="#6b89a7" stroke="#6b89a7" stroke-width="1.51"/><path d="M1276,599L1346,597L1308,480Z" fill="#8fb3c9" stroke="#8fb3c9" stroke-width="1.51"/><path d="M1256,746L1271,647L1172,649Z" fill="#91b7cc" stroke="#91b7cc" stroke-width="1.51"/><path d="M332,36L233,89L322,124Z" fill="#5d7799" stroke="#5d7799" stroke-width="1.51"/><path d="M396,-86L444,1L519,-35Z" fill="#5c7799" stroke="#5c7799" stroke-width="1.51"/><path d="M171,748L236,769L238,686Z" fill="#7695b1" stroke="#7695b1" stroke-width="1.51"/><path d="M610,-137L500,-123L519,-35Z" fill="#5c7799" stroke="#5c7799" stroke-width="1.51"/><path d="M217,3L233,89L332,36Z" fill="#5a7596" stroke="#5a7596" stroke-width="1.51"/><path d="M523,1014L593,1013L568,897Z" fill="#8aaec5" stroke="#8aaec5" stroke-width="1.51"/><path d="M523,1014L568,897L481,951Z" fill="#88abc3" stroke="#88abc3" stroke-width="1.51"/><path d="M824,1023L918,994L833,937Z" fill="#94b9ce" stroke="#94b9ce" stroke-width="1.51"/><path d="M62,464L132,555L185,483Z" fill="#6987a5" stroke="#6987a5" stroke-width="1.51"/><path d="M62,464L185,483L140,409Z" fill="#6784a3" stroke="#6784a3" stroke-width="1.51"/><path d="M783,1015L824,1023L833,937Z" fill="#92b8cd" stroke="#92b8cd" stroke-width="1.51"/><path d="M593,1013L824,1023L783,1015Z" fill="#91b7cc" stroke="#91b7cc" stroke-width="1.51"/><path d="M355,-36L217,3L332,36Z" fill="#597496" stroke="#597496" stroke-width="1.51"/><path d="M500,-123L396,-86L519,-35Z" fill="#5b7698" stroke="#5b7698" stroke-width="1.51"/><path d="M1304,226L1265,149L1217,229Z" fill="#7e9fb9" stroke="#7e9fb9" stroke-width="1.51"/><path d="M1118,-126L1020,-37L1080,-11Z" fill="#6e8caa" stroke="#6e8caa" stroke-width="1.51"/><path d="M1298,313L1304,226L1217,229Z" fill="#81a2bc" stroke="#81a2bc" stroke-width="1.51"/><path d="M1340,300L1304,226L1298,313Z" fill="#83a5be" stroke="#83a5be" stroke-width="1.51"/><path d="M593,1013L417,1035L824,1023Z" fill="#8eb2c8" stroke="#8eb2c8" stroke-width="1.51"/><path d="M417,1035L523,1014L481,951Z" fill="#89acc3" stroke="#89acc3" stroke-width="1.51"/><path d="M417,1035L481,951L390,903Z" fill="#86a8c1" stroke="#86a8c1" stroke-width="1.51"/><path d="M1181,764L1256,746L1172,649Z" fill="#93b8cd" stroke="#93b8cd" stroke-width="1.51"/><path d="M1128,821L1180,845L1181,764Z" fill="#95bbcf" stroke="#95bbcf" stroke-width="1.51"/><path d="M1128,925L1180,845L1128,821Z" fill="#97bdd1" stroke="#97bdd1" stroke-width="1.51"/><path d="M1128,925L1038,843L1027,928Z" fill="#96bcd0" stroke="#96bcd0" stroke-width="1.51"/><path d="M1180,845L1256,746L1181,764Z" fill="#95bbcf" stroke="#95bbcf" stroke-width="1.51"/><path d="M1342,651L1346,597L1276,599Z" fill="#92b7cc" stroke="#92b7cc" stroke-width="1.51"/><path d="M1372,406L1340,300L1292,392Z" fill="#88aac2" stroke="#88aac2" stroke-width="1.51"/><path d="M871,-131L1026,-128L752,-139Z" fill="#6581a1" stroke="#6581a1" stroke-width="1.51"/><path d="M1118,-126L1026,-128L1020,-37Z" fill="#6c89a7" stroke="#6c89a7" stroke-width="1.51"/><path d="M1187,-46L1080,-11L1168,75Z" fill="#7291ae" stroke="#7291ae" stroke-width="1.51"/><path d="M169,637L171,748L238,686Z" fill="#7392af" stroke="#7392af" stroke-width="1.51"/><path d="M232,866L309,918L326,864Z" fill="#7ea0ba" stroke="#7ea0ba" stroke-width="1.51"/><path d="M326,864L309,918L390,903Z" fill="#80a2bc" stroke="#80a2bc" stroke-width="1.51"/><path d="M47,656L171,748L169,637Z" fill="#718fad" stroke="#718fad" stroke-width="1.51"/><path d="M232,866L326,864L236,769Z" fill="#7c9cb6" stroke="#7c9cb6" stroke-width="1.51"/><path d="M142,328L80,407L140,409Z" fill="#6480a0" stroke="#6480a0" stroke-width="1.51"/><path d="M132,555L79,577L169,637Z" fill="#6d8ba9" stroke="#6d8ba9" stroke-width="1.51"/><path d="M56,340L80,407L142,328Z" fill="#627e9f" stroke="#627e9f" stroke-width="1.51"/><path d="M1180,845L1294,839L1256,746Z" fill="#98bed1" stroke="#98bed1" stroke-width="1.51"/><path d="M1101,1027L1128,925L1027,928Z" fill="#9ac0d3" stroke="#9ac0d3" stroke-width="1.51"/><path d="M1342,651L1276,599L1271,647Z" fill="#91b6cc" stroke="#91b6cc" stroke-width="1.51"/><path d="M1308,480L1372,406L1292,392Z" fill="#8aadc4" stroke="#8aadc4" stroke-width="1.51"/><path d="M1369,509L1372,406L1308,480Z" fill="#8cb0c6" stroke="#8cb0c6" stroke-width="1.51"/><path d="M1346,597L1369,509L1308,480Z" fill="#8eb3c9" stroke="#8eb3c9" stroke-width="1.51"/><path d="M181,824L232,866L236,769Z" fill="#799ab5" stroke="#799ab5" stroke-width="1.51"/><path d="M1450,553L1433,467L1369,509Z" fill="#90b5ca" stroke="#90b5ca" stroke-width="1.51"/><path d="M1344,729L1342,651L1271,647Z" fill="#94bace" stroke="#94bace" stroke-width="1.51"/><path d="M1344,729L1271,647L1256,746Z" fill="#95bacf" stroke="#95bacf" stroke-width="1.51"/><path d="M62,464L79,577L132,555Z" fill="#6a87a6" stroke="#6a87a6" stroke-width="1.51"/><path d="M171,748L181,824L236,769Z" fill="#7797b3" stroke="#7797b3" stroke-width="1.51"/><path d="M78,222L56,340L142,328Z" fill="#607b9c" stroke="#607b9c" stroke-width="1.51"/><path d="M233,89L135,123L261,156Z" fill="#5c7698" stroke="#5c7698" stroke-width="1.51"/><path d="M230,-118L217,3L355,-36Z" fill="#567093" stroke="#567093" stroke-width="1.51"/><path d="M80,407L62,464L140,409Z" fill="#6582a1" stroke="#6582a1" stroke-width="1.51"/><path d="M162,32L135,123L233,89Z" fill="#5a7396" stroke="#5a7396" stroke-width="1.51"/><path d="M80,407L7,379L62,464Z" fill="#6380a0" stroke="#6380a0" stroke-width="1.51"/><path d="M1275,-11L1187,-46L1168,75Z" fill="#7494b0" stroke="#7494b0" stroke-width="1.51"/><path d="M1300,81L1168,75L1265,149Z" fill="#799ab5" stroke="#799ab5" stroke-width="1.51"/><path d="M1300,81L1265,149L1349,162Z" fill="#7d9db8" stroke="#7d9db8" stroke-width="1.51"/><path d="M1128,925L1194,897L1180,845Z" fill="#99bfd3" stroke="#99bfd3" stroke-width="1.51"/><path d="M91,811L181,824L171,748Z" fill="#7696b2" stroke="#7696b2" stroke-width="1.51"/><path d="M78,222L142,328L171,215Z" fill="#5f7a9b" stroke="#5f7a9b" stroke-width="1.51"/><path d="M1349,162L1304,226L1389,209Z" fill="#81a2bc" stroke="#81a2bc" stroke-width="1.51"/><path d="M1349,162L1265,149L1304,226Z" fill="#7fa0ba" stroke="#7fa0ba" stroke-width="1.51"/><path d="M135,123L78,222L171,215Z" fill="#5c7799" stroke="#5c7799" stroke-width="1.51"/><path d="M918,994L1042,1025L1027,928Z" fill="#98bed2" stroke="#98bed2" stroke-width="1.51"/><path d="M1128,925L1216,1009L1194,897Z" fill="#9bc3d5" stroke="#9bc3d5" stroke-width="1.51"/><path d="M824,1023L1042,1025L918,994Z" fill="#97bed1" stroke="#97bed1" stroke-width="1.51"/><path d="M309,1019L390,903L309,918Z" fill="#82a4bd" stroke="#82a4bd" stroke-width="1.51"/><path d="M309,1019L417,1035L390,903Z" fill="#85a8c0" stroke="#85a8c0" stroke-width="1.51"/><path d="M523,1014L417,1035L593,1013Z" fill="#8baec5" stroke="#8baec5" stroke-width="1.51"/><path d="M824,1023L1101,1027L1042,1025Z" fill="#99c0d3" stroke="#99c0d3" stroke-width="1.51"/><path d="M224,943L309,918L232,866Z" fill="#7e9fba" stroke="#7e9fba" stroke-width="1.51"/><path d="M1182,-93L1118,-126L1187,-46Z" fill="#6f8daa" stroke="#6f8daa" stroke-width="1.51"/><path d="M1187,-46L1118,-126L1080,-11Z" fill="#6f8dab" stroke="#6f8dab" stroke-width="1.51"/><path d="M1026,-128L1566,-129L752,-139Z" fill="#6c89a8" stroke="#6c89a8" stroke-width="1.51"/><path d="M1389,209L1304,226L1340,300Z" fill="#82a4bd" stroke="#82a4bd" stroke-width="1.51"/><path d="M135,123L53,173L78,222Z" fill="#5a7597" stroke="#5a7597" stroke-width="1.51"/><path d="M217,3L162,32L233,89Z" fill="#587295" stroke="#587295" stroke-width="1.51"/><path d="M1450,553L1369,509L1346,597Z" fill="#91b6cb" stroke="#91b6cb" stroke-width="1.51"/><path d="M1294,839L1344,729L1256,746Z" fill="#97bed1" stroke="#97bed1" stroke-width="1.51"/><path d="M1278,-93L1182,-93L1187,-46Z" fill="#7190ac" stroke="#7190ac" stroke-width="1.51"/><path d="M396,-86L306,-135L355,-36Z" fill="#577194" stroke="#577194" stroke-width="1.51"/><path d="M217,3L136,-11L162,32Z" fill="#567093" stroke="#567093" stroke-width="1.51"/><path d="M500,-123L306,-135L396,-86Z" fill="#577294" stroke="#577294" stroke-width="1.51"/><path d="M610,-137L306,-135L500,-123Z" fill="#597396" stroke="#597396" stroke-width="1.51"/><path d="M752,-139L306,-135L610,-137Z" fill="#5b7698" stroke="#5b7698" stroke-width="1.51"/><path d="M1392,63L1275,-11L1300,81Z" fill="#7a99b5" stroke="#7a99b5" stroke-width="1.51"/><path d="M1300,81L1275,-11L1168,75Z" fill="#7797b3" stroke="#7797b3" stroke-width="1.51"/><path d="M1438,205L1389,209L1340,300Z" fill="#84a6bf" stroke="#84a6bf" stroke-width="1.51"/><path d="M1438,205L1340,300L1482,344Z" fill="#87a9c1" stroke="#87a9c1" stroke-width="1.51"/><path d="M1194,897L1294,839L1180,845Z" fill="#99c0d3" stroke="#99c0d3" stroke-width="1.51"/><path d="M1283,933L1294,839L1194,897Z" fill="#9cc3d5" stroke="#9cc3d5" stroke-width="1.51"/><path d="M1392,63L1300,81L1349,162Z" fill="#7c9db8" stroke="#7c9db8" stroke-width="1.51"/><path d="M1042,1025L1101,1027L1027,928Z" fill="#9ac1d4" stroke="#9ac1d4" stroke-width="1.51"/><path d="M1281,1036L1101,1027L824,1023Z" fill="#9cc3d6" stroke="#9cc3d6" stroke-width="1.51"/><path d="M3,579L79,577L62,464Z" fill="#6886a4" stroke="#6886a4" stroke-width="1.51"/><path d="M3,579L47,656L79,577Z" fill="#6b88a7" stroke="#6b88a7" stroke-width="1.51"/><path d="M79,577L47,656L169,637Z" fill="#6d8ba9" stroke="#6d8ba9" stroke-width="1.51"/><path d="M1369,509L1433,467L1372,406Z" fill="#8db2c8" stroke="#8db2c8" stroke-width="1.51"/><path d="M1450,553L1346,597L1456,693Z" fill="#95bace" stroke="#95bace" stroke-width="1.51"/><path d="M61,54L53,173L135,123Z" fill="#587294" stroke="#587294" stroke-width="1.51"/><path d="M-28,309L7,379L56,340Z" fill="#5f7b9b" stroke="#5f7b9b" stroke-width="1.51"/><path d="M56,340L7,379L80,407Z" fill="#617e9e" stroke="#617e9e" stroke-width="1.51"/><path d="M181,904L232,866L181,824Z" fill="#7b9cb6" stroke="#7b9cb6" stroke-width="1.51"/><path d="M181,904L224,943L232,866Z" fill="#7d9eb8" stroke="#7d9eb8" stroke-width="1.51"/><path d="M-28,309L56,340L78,222Z" fill="#5d799a" stroke="#5d799a" stroke-width="1.51"/><path d="M86,908L181,904L181,824Z" fill="#7a9ab5" stroke="#7a9ab5" stroke-width="1.51"/><path d="M251,987L309,1019L309,918Z" fill="#82a4bd" stroke="#82a4bd" stroke-width="1.51"/><path d="M224,943L251,987L309,918Z" fill="#81a2bb" stroke="#81a2bb" stroke-width="1.51"/><path d="M175,1001L251,987L224,943Z" fill="#80a2bb" stroke="#80a2bb" stroke-width="1.51"/><path d="M138,-105L136,-11L217,3Z" fill="#546d91" stroke="#546d91" stroke-width="1.51"/><path d="M162,32L61,54L135,123Z" fill="#577194" stroke="#577194" stroke-width="1.51"/><path d="M7,379L-9,475L62,464Z" fill="#6480a0" stroke="#6480a0" stroke-width="1.51"/><path d="M-9,475L3,579L62,464Z" fill="#6683a2" stroke="#6683a2" stroke-width="1.51"/><path d="M47,732L91,811L171,748Z" fill="#7493af" stroke="#7493af" stroke-width="1.51"/><path d="M306,-135L230,-118L355,-36Z" fill="#566f92" stroke="#566f92" stroke-width="1.51"/><path d="M181,904L175,1001L224,943Z" fill="#7f9fb9" stroke="#7f9fb9" stroke-width="1.51"/><path d="M47,732L171,748L47,656Z" fill="#7190ad" stroke="#7190ad" stroke-width="1.51"/><path d="M1456,693L1346,597L1342,651Z" fill="#95bbcf" stroke="#95bbcf" stroke-width="1.51"/><path d="M1482,344L1340,300L1372,406Z" fill="#89acc3" stroke="#89acc3" stroke-width="1.51"/><path d="M1456,693L1342,651L1344,729Z" fill="#96bdd1" stroke="#96bdd1" stroke-width="1.51"/><path d="M-24,691L47,732L47,656Z" fill="#6e8daa" stroke="#6e8daa" stroke-width="1.51"/><path d="M1389,209L1441,171L1349,162Z" fill="#81a3bc" stroke="#81a3bc" stroke-width="1.51"/><path d="M1476,391L1372,406L1433,467Z" fill="#8cb1c7" stroke="#8cb1c7" stroke-width="1.51"/><path d="M1294,839L1374,849L1344,729Z" fill="#9ac1d4" stroke="#9ac1d4" stroke-width="1.51"/><path d="M1216,1009L1283,933L1194,897Z" fill="#9dc5d7" stroke="#9dc5d7" stroke-width="1.51"/><path d="M1545,488L1476,391L1433,467Z" fill="#90b5ca" stroke="#90b5ca" stroke-width="1.51"/><path d="M-101,423L-87,484L-9,475Z" fill="#627e9e" stroke="#627e9e" stroke-width="1.51"/><path d="M-27,218L-28,309L78,222Z" fill="#5b7698" stroke="#5b7698" stroke-width="1.51"/><path d="M-27,218L78,222L53,173Z" fill="#5a7597" stroke="#5a7597" stroke-width="1.51"/><path d="M136,-11L61,54L162,32Z" fill="#556f92" stroke="#556f92" stroke-width="1.51"/><path d="M59,-12L61,54L136,-11Z" fill="#536d90" stroke="#536d90" stroke-width="1.51"/><path d="M1275,-11L1278,-93L1187,-46Z" fill="#7392ae" stroke="#7392ae" stroke-width="1.51"/><path d="M1182,-93L1278,-93L1118,-126Z" fill="#6f8eab" stroke="#6f8eab" stroke-width="1.51"/><path d="M1365,-49L1278,-93L1275,-11Z" fill="#7594b0" stroke="#7594b0" stroke-width="1.51"/><path d="M1101,1027L1216,1009L1128,925Z" fill="#9cc4d6" stroke="#9cc4d6" stroke-width="1.51"/><path d="M1441,171L1392,63L1349,162Z" fill="#7fa1ba" stroke="#7fa1ba" stroke-width="1.51"/><path d="M1438,205L1441,171L1389,209Z" fill="#83a5bd" stroke="#83a5bd" stroke-width="1.51"/><path d="M1549,143L1441,171L1438,205Z" fill="#83a6bf" stroke="#83a6bf" stroke-width="1.51"/><path d="M1476,391L1482,344L1372,406Z" fill="#8bafc6" stroke="#8bafc6" stroke-width="1.51"/><path d="M1385,919L1374,849L1283,933Z" fill="#9ec6d8" stroke="#9ec6d8" stroke-width="1.51"/><path d="M1283,933L1374,849L1294,839Z" fill="#9dc4d6" stroke="#9dc4d6" stroke-width="1.51"/><path d="M-19,147L-27,218L53,173Z" fill="#587395" stroke="#587395" stroke-width="1.51"/><path d="M1450,553L1545,488L1433,467Z" fill="#91b7cc" stroke="#91b7cc" stroke-width="1.51"/><path d="M1476,391L1554,378L1482,344Z" fill="#8db1c7" stroke="#8db1c7" stroke-width="1.51"/><path d="M1461,735L1456,693L1344,729Z" fill="#99c0d3" stroke="#99c0d3" stroke-width="1.51"/><path d="M47,732L-3,833L91,811Z" fill="#7392af" stroke="#7392af" stroke-width="1.51"/><path d="M86,908L175,1001L181,904Z" fill="#7d9db7" stroke="#7d9db7" stroke-width="1.51"/><path d="M3,579L-24,691L47,656Z" fill="#6c89a8" stroke="#6c89a8" stroke-width="1.51"/><path d="M-78,691L-24,691L3,579Z" fill="#6b89a7" stroke="#6b89a7" stroke-width="1.51"/><path d="M-87,484L3,579L-9,475Z" fill="#6581a1" stroke="#6581a1" stroke-width="1.51"/><path d="M230,-118L138,-105L217,3Z" fill="#536d90" stroke="#536d90" stroke-width="1.51"/><path d="M-1,69L-19,147L53,173Z" fill="#567093" stroke="#567093" stroke-width="1.51"/><path d="M44,-118L138,-105L230,-118Z" fill="#50698d" stroke="#50698d" stroke-width="1.51"/><path d="M251,987L175,1001L309,1019Z" fill="#82a4bd" stroke="#82a4bd" stroke-width="1.51"/><path d="M309,1019L85,1007L417,1035Z" fill="#83a6be" stroke="#83a6be" stroke-width="1.51"/><path d="M86,908L181,824L91,811Z" fill="#7897b3" stroke="#7897b3" stroke-width="1.51"/><path d="M-1,69L53,173L61,54Z" fill="#567093" stroke="#567093" stroke-width="1.51"/><path d="M138,-105L59,-12L136,-11Z" fill="#526b8f" stroke="#526b8f" stroke-width="1.51"/><path d="M-3,833L86,908L91,811Z" fill="#7695b1" stroke="#7695b1" stroke-width="1.51"/><path d="M1539,602L1545,488L1450,553Z" fill="#95bbcf" stroke="#95bbcf" stroke-width="1.51"/><path d="M1374,849L1461,735L1344,729Z" fill="#9ac2d4" stroke="#9ac2d4" stroke-width="1.51"/><path d="M1439,47L1365,-49L1392,63Z" fill="#7b9bb6" stroke="#7b9bb6" stroke-width="1.51"/><path d="M1392,63L1365,-49L1275,-11Z" fill="#7898b3" stroke="#7898b3" stroke-width="1.51"/><path d="M59,-12L-1,69L61,54Z" fill="#536d90" stroke="#536d90" stroke-width="1.51"/><path d="M-101,423L-9,475L7,379Z" fill="#617d9e" stroke="#617d9e" stroke-width="1.51"/><path d="M-101,423L7,379L-28,309Z" fill="#5f7b9b" stroke="#5f7b9b" stroke-width="1.51"/><path d="M-101,423L-28,309L-104,293Z" fill="#5d7899" stroke="#5d7899" stroke-width="1.51"/><path d="M1441,171L1439,47L1392,63Z" fill="#7f9fb9" stroke="#7f9fb9" stroke-width="1.51"/><path d="M1513,76L1439,47L1441,171Z" fill="#80a1bb" stroke="#80a1bb" stroke-width="1.51"/><path d="M-104,293L-28,309L-109,259Z" fill="#5a7597" stroke="#5a7597" stroke-width="1.51"/><path d="M-28,309L-27,218L-109,259Z" fill="#5a7597" stroke="#5a7597" stroke-width="1.51"/><path d="M-24,691L-43,738L47,732Z" fill="#6f8daa" stroke="#6f8daa" stroke-width="1.51"/><path d="M-78,691L-43,738L-24,691Z" fill="#6d8aa9" stroke="#6d8aa9" stroke-width="1.51"/><path d="M-104,562L3,579L-87,484Z" fill="#6582a1" stroke="#6582a1" stroke-width="1.51"/><path d="M1374,849L1439,859L1461,735Z" fill="#9dc5d7" stroke="#9dc5d7" stroke-width="1.51"/><path d="M1352,1016L1385,919L1283,933Z" fill="#a1c9db" stroke="#a1c9db" stroke-width="1.51"/><path d="M1482,344L1553,260L1438,205Z" fill="#88abc3" stroke="#88abc3" stroke-width="1.51"/><path d="M1539,602L1450,553L1456,693Z" fill="#97bdd0" stroke="#97bdd0" stroke-width="1.51"/><path d="M1216,1009L1281,1036L1283,933Z" fill="#a0c8da" stroke="#a0c8da" stroke-width="1.51"/><path d="M1101,1027L1281,1036L1216,1009Z" fill="#9fc8d9" stroke="#9fc8d9" stroke-width="1.51"/><path d="M417,1035L1281,1036L824,1023Z" fill="#95bbcf" stroke="#95bbcf" stroke-width="1.51"/><path d="M-43,738L-3,833L47,732Z" fill="#718fad" stroke="#718fad" stroke-width="1.51"/><path d="M86,908L85,1007L175,1001Z" fill="#7d9eb8" stroke="#7d9eb8" stroke-width="1.51"/><path d="M1545,488L1554,378L1476,391Z" fill="#8fb5ca" stroke="#8fb5ca" stroke-width="1.51"/><path d="M1562,671L1539,602L1456,693Z" fill="#99c0d3" stroke="#99c0d3" stroke-width="1.51"/><path d="M1545,488L1563,329L1554,378Z" fill="#8fb4ca" stroke="#8fb4ca" stroke-width="1.51"/><path d="M1562,671L1456,693L1548,730Z" fill="#9bc2d5" stroke="#9bc2d5" stroke-width="1.51"/><path d="M-101,423L-104,562L-87,484Z" fill="#627e9f" stroke="#627e9f" stroke-width="1.51"/><path d="M-101,423L-109,259L-104,562Z" fill="#5f7a9b" stroke="#5f7a9b" stroke-width="1.51"/><path d="M-109,259L-27,218L-105,122Z" fill="#577193" stroke="#577193" stroke-width="1.51"/><path d="M1385,919L1439,859L1374,849Z" fill="#9fc7d9" stroke="#9fc7d9" stroke-width="1.51"/><path d="M1435,920L1439,859L1385,919Z" fill="#a1c9da" stroke="#a1c9da" stroke-width="1.51"/><path d="M-43,738L-98,778L-3,833Z" fill="#708eab" stroke="#708eab" stroke-width="1.51"/><path d="M-104,562L-78,691L3,579Z" fill="#6885a5" stroke="#6885a5" stroke-width="1.51"/><path d="M1562,671L1563,329L1545,488Z" fill="#94b9ce" stroke="#94b9ce" stroke-width="1.51"/><path d="M1554,378L1563,329L1482,344Z" fill="#8db1c7" stroke="#8db1c7" stroke-width="1.51"/><path d="M-104,293L-109,259L-101,423Z" fill="#5b7698" stroke="#5b7698" stroke-width="1.51"/><path d="M-105,122L-27,218L-19,147Z" fill="#557093" stroke="#557093" stroke-width="1.51"/><path d="M1563,329L1553,260L1482,344Z" fill="#8bafc6" stroke="#8bafc6" stroke-width="1.51"/><path d="M1365,-49L1384,-114L1278,-93Z" fill="#7493b0" stroke="#7493b0" stroke-width="1.51"/><path d="M1278,-93L1384,-114L1118,-126Z" fill="#7190ac" stroke="#7190ac" stroke-width="1.51"/><path d="M1445,-52L1384,-114L1365,-49Z" fill="#7796b2" stroke="#7796b2" stroke-width="1.51"/><path d="M1445,-52L1365,-49L1439,47Z" fill="#799ab5" stroke="#799ab5" stroke-width="1.51"/><path d="M-21,943L86,908L-3,833Z" fill="#7797b2" stroke="#7797b2" stroke-width="1.51"/><path d="M-13,989L85,1007L86,908Z" fill="#7a9bb6" stroke="#7a9bb6" stroke-width="1.51"/><path d="M175,1001L85,1007L309,1019Z" fill="#80a2bb" stroke="#80a2bb" stroke-width="1.51"/><path d="M1281,1036L1352,1016L1283,933Z" fill="#a2cadb" stroke="#a2cadb" stroke-width="1.51"/><path d="M-78,48L-105,122L-19,147Z" fill="#536d90" stroke="#536d90" stroke-width="1.51"/><path d="M59,-12L-21,-14L-1,69Z" fill="#526b8f" stroke="#526b8f" stroke-width="1.51"/><path d="M-7,-91L-21,-14L59,-12Z" fill="#4f688c" stroke="#4f688c" stroke-width="1.51"/><path d="M1549,143L1513,76L1441,171Z" fill="#83a4bd" stroke="#83a4bd" stroke-width="1.51"/><path d="M1469,986L1435,920L1385,919Z" fill="#a4ccdc" stroke="#a4ccdc" stroke-width="1.51"/><path d="M1548,730L1456,693L1461,735Z" fill="#9bc2d5" stroke="#9bc2d5" stroke-width="1.51"/><path d="M1513,76L1445,-52L1439,47Z" fill="#7d9eb8" stroke="#7d9eb8" stroke-width="1.51"/><path d="M306,-135L44,-118L230,-118Z" fill="#516a8e" stroke="#516a8e" stroke-width="1.51"/><path d="M138,-105L44,-118L59,-12Z" fill="#50698d" stroke="#50698d" stroke-width="1.51"/><path d="M1539,602L1562,671L1545,488Z" fill="#97bed1" stroke="#97bed1" stroke-width="1.51"/><path d="M1548,730L1461,735L1554,810Z" fill="#9ec5d7" stroke="#9ec5d7" stroke-width="1.51"/><path d="M1558,-54L1473,-96L1445,-52Z" fill="#799ab5" stroke="#799ab5" stroke-width="1.51"/><path d="M1553,260L1549,143L1438,205Z" fill="#86a9c1" stroke="#86a9c1" stroke-width="1.51"/><path d="M1563,329L1549,143L1553,260Z" fill="#89acc3" stroke="#89acc3" stroke-width="1.51"/><path d="M1554,810L1461,735L1439,859Z" fill="#9fc7d8" stroke="#9fc7d8" stroke-width="1.51"/><path d="M-78,48L-19,147L-1,69Z" fill="#536d90" stroke="#536d90" stroke-width="1.51"/><path d="M-21,-14L-78,48L-1,69Z" fill="#516a8e" stroke="#516a8e" stroke-width="1.51"/><path d="M-94,-54L-78,48L-21,-14Z" fill="#4e678c" stroke="#4e678c" stroke-width="1.51"/><path d="M-78,691L-98,778L-43,738Z" fill="#6d8ba9" stroke="#6d8ba9" stroke-width="1.51"/><path d="M-104,562L-98,778L-78,691Z" fill="#6a87a6" stroke="#6a87a6" stroke-width="1.51"/><path d="M44,-118L-7,-91L59,-12Z" fill="#4e688c" stroke="#4e688c" stroke-width="1.51"/><path d="M-100,865L-21,943L-3,833Z" fill="#7594b0" stroke="#7594b0" stroke-width="1.51"/><path d="M1548,730L1554,810L1562,671Z" fill="#9ec6d7" stroke="#9ec6d7" stroke-width="1.51"/><path d="M1534,929L1554,810L1439,859Z" fill="#a2cbdc" stroke="#a2cbdc" stroke-width="1.51"/><path d="M1534,929L1439,859L1435,920Z" fill="#a3cbdc" stroke="#a3cbdc" stroke-width="1.51"/><path d="M1445,-52L1473,-96L1384,-114Z" fill="#7797b2" stroke="#7797b2" stroke-width="1.51"/><path d="M1558,-54L1445,-52L1513,76Z" fill="#7c9db7" stroke="#7c9db7" stroke-width="1.51"/><path d="M-102,991L-13,989L-21,943Z" fill="#7898b3" stroke="#7898b3" stroke-width="1.51"/><path d="M-21,943L-13,989L86,908Z" fill="#7899b4" stroke="#7899b4" stroke-width="1.51"/><path d="M-98,778L-100,865L-3,833Z" fill="#7190ad" stroke="#7190ad" stroke-width="1.51"/><path d="M-104,562L-100,865L-98,778Z" fill="#6d8aa8" stroke="#6d8aa8" stroke-width="1.51"/><path d="M-102,991L-100,865L-104,562Z" fill="#6f8eab" stroke="#6f8eab" stroke-width="1.51"/><path d="M1352,1016L1469,986L1385,919Z" fill="#a4ccdd" stroke="#a4ccdd" stroke-width="1.51"/><path d="M1535,1010L1469,986L1352,1016Z" fill="#a7d0e0" stroke="#a7d0e0" stroke-width="1.51"/><path d="M-129,-89L-94,-54L-7,-91Z" fill="#4b6389" stroke="#4b6389" stroke-width="1.51"/><path d="M-7,-91L-94,-54L-21,-14Z" fill="#4d668b" stroke="#4d668b" stroke-width="1.51"/><path d="M-78,48L-129,-89L-105,122Z" fill="#4f688c" stroke="#4f688c" stroke-width="1.51"/><path d="M-100,865L-93,919L-21,943Z" fill="#7494b0" stroke="#7494b0" stroke-width="1.51"/><path d="M1469,986L1534,929L1435,920Z" fill="#a5cede" stroke="#a5cede" stroke-width="1.51"/><path d="M1563,329L1558,-54L1549,143Z" fill="#84a7bf" stroke="#84a7bf" stroke-width="1.51"/><path d="M1549,143L1558,-54L1513,76Z" fill="#80a2bb" stroke="#80a2bb" stroke-width="1.51"/><path d="M44,-118L-129,-89L-7,-91Z" fill="#4c6489" stroke="#4c6489" stroke-width="1.51"/><path d="M-94,-54L-129,-89L-78,48Z" fill="#4c658a" stroke="#4c658a" stroke-width="1.51"/><path d="M-105,122L-129,-89L-109,259Z" fill="#516b8f" stroke="#516b8f" stroke-width="1.51"/><path d="M-109,259L-129,-89L-104,562Z" fill="#577294" stroke="#577294" stroke-width="1.51"/><path d="M-100,865L-102,991L-93,919Z" fill="#7594b0" stroke="#7594b0" stroke-width="1.51"/><path d="M-93,919L-102,991L-21,943Z" fill="#7696b2" stroke="#7696b2" stroke-width="1.51"/><path d="M-13,989L-102,991L85,1007Z" fill="#7a9bb5" stroke="#7a9bb5" stroke-width="1.51"/><path d="M-129,-89L-102,991L-104,562Z" fill="#627e9e" stroke="#627e9e" stroke-width="1.51"/><path d="M1469,986L1535,1010L1534,929Z" fill="#a7d1e0" stroke="#a7d1e0" stroke-width="1.51"/><path d="M1534,929L1535,1010L1554,810Z" fill="#a5cfde" stroke="#a5cfde" stroke-width="1.51"/><path d="M1281,1036L1535,1010L1352,1016Z" fill="#a5cedf" stroke="#a5cedf" stroke-width="1.51"/><path d="M1558,-54L1566,-129L1473,-96Z" fill="#7a9ab5" stroke="#7a9ab5" stroke-width="1.51"/><path d="M1473,-96L1566,-129L1384,-114Z" fill="#7797b3" stroke="#7797b3" stroke-width="1.51"/><path d="M1384,-114L1566,-129L1118,-126Z" fill="#7392af" stroke="#7392af" stroke-width="1.51"/><path d="M1118,-126L1566,-129L1026,-128Z" fill="#708eab" stroke="#708eab" stroke-width="1.51"/><path d="M1563,329L1566,-129L1558,-54Z" fill="#81a2bc" stroke="#81a2bc" stroke-width="1.51"/><path d="M1562,671L1566,-129L1563,329Z" fill="#8bafc6" stroke="#8bafc6" stroke-width="1.51"/></svg>